<svg width="600" height="182" viewBox="0 0 600 182" fill="none" xmlns="http://www.w3.org/2000/svg">
<g id="shape_logo_primary">
<path id="subtitle" d="M106.882 175.55V154.69H113.742C115.814 154.69 117.616 155.119 119.146 155.978C120.677 156.818 121.862 158.022 122.702 159.59C123.542 161.139 123.962 162.978 123.962 165.106C123.962 167.215 123.542 169.054 122.702 170.622C121.862 172.19 120.677 173.403 119.146 174.262C117.616 175.121 115.814 175.55 113.742 175.55H106.882ZM109.122 173.45H113.742C115.348 173.45 116.738 173.114 117.914 172.442C119.09 171.751 119.996 170.781 120.63 169.53C121.284 168.279 121.61 166.805 121.61 165.106C121.61 163.407 121.284 161.942 120.63 160.71C119.977 159.459 119.062 158.498 117.886 157.826C116.71 157.135 115.329 156.79 113.742 156.79H109.122V173.45ZM131.304 175.55V154.69H133.544V175.55H131.304ZM151.628 175.886C150.153 175.886 148.8 175.625 147.568 175.102C146.336 174.561 145.262 173.814 144.348 172.862C143.452 171.891 142.752 170.753 142.248 169.446C141.744 168.139 141.492 166.702 141.492 165.134C141.492 163.566 141.744 162.129 142.248 160.822C142.752 159.515 143.452 158.377 144.348 157.406C145.262 156.435 146.336 155.689 147.568 155.166C148.8 154.625 150.153 154.354 151.628 154.354C153.046 154.354 154.316 154.606 155.436 155.11C156.574 155.614 157.526 156.267 158.292 157.07C159.076 157.854 159.636 158.685 159.972 159.562L157.956 160.542C157.433 159.273 156.63 158.274 155.548 157.546C154.465 156.818 153.158 156.454 151.628 156.454C150.097 156.454 148.734 156.818 147.54 157.546C146.345 158.274 145.412 159.291 144.74 160.598C144.068 161.886 143.732 163.398 143.732 165.134C143.732 166.851 144.068 168.363 144.74 169.67C145.412 170.977 146.345 171.994 147.54 172.722C148.734 173.431 150.097 173.786 151.628 173.786C152.99 173.786 154.213 173.487 155.296 172.89C156.397 172.293 157.265 171.481 157.9 170.454C158.534 169.409 158.852 168.214 158.852 166.87V165.722L159.86 166.73H151.628V164.77H161.092V166.506C161.092 167.869 160.849 169.129 160.364 170.286C159.878 171.425 159.206 172.414 158.348 173.254C157.489 174.094 156.481 174.747 155.324 175.214C154.185 175.662 152.953 175.886 151.628 175.886ZM168.744 175.55V154.69H170.984V175.55H168.744ZM183.16 175.55V156.79H177.392V154.69H191.112V156.79H185.4V175.55H183.16ZM193.965 175.55L201.581 154.69H203.989L211.605 175.55H209.253L207.461 170.454H198.137L196.317 175.55H193.965ZM198.865 168.354H206.677L202.449 156.37H203.121L198.865 168.354ZM218.027 175.55V154.69H220.267V173.45H229.507V175.55H218.027ZM236.542 175.55V154.69H249.982V156.79H238.782V164.042H249.422V166.142H238.782V173.45H249.982V175.55H236.542ZM271.966 175.55L279.582 154.69H281.99L289.606 175.55H287.254L285.462 170.454H276.138L274.318 175.55H271.966ZM276.866 168.354H284.678L280.45 156.37H281.122L276.866 168.354ZM296.028 175.55V154.69H303.196C304.559 154.69 305.753 154.961 306.78 155.502C307.807 156.025 308.6 156.771 309.16 157.742C309.739 158.694 310.028 159.805 310.028 161.074C310.028 162.549 309.636 163.809 308.852 164.854C308.087 165.899 307.041 166.637 305.716 167.066L310.588 175.55H307.956L302.86 166.562L304.372 167.43H298.268V175.55H296.028ZM298.268 165.33H303.308C304.204 165.33 304.988 165.162 305.66 164.826C306.332 164.471 306.855 163.977 307.228 163.342C307.601 162.689 307.788 161.923 307.788 161.046C307.788 160.169 307.601 159.413 307.228 158.778C306.855 158.143 306.332 157.658 305.66 157.322C304.988 156.967 304.204 156.79 303.308 156.79H298.268V165.33ZM327.125 175.886C325.651 175.886 324.297 175.625 323.065 175.102C321.833 174.561 320.76 173.814 319.845 172.862C318.949 171.891 318.249 170.753 317.745 169.446C317.241 168.139 316.989 166.702 316.989 165.134C316.989 163.566 317.241 162.129 317.745 160.822C318.249 159.515 318.949 158.377 319.845 157.406C320.76 156.435 321.833 155.689 323.065 155.166C324.297 154.625 325.651 154.354 327.125 154.354C328.544 154.354 329.813 154.606 330.933 155.11C332.072 155.614 333.024 156.267 333.789 157.07C334.573 157.854 335.133 158.685 335.469 159.562L333.369 160.486C332.847 159.273 332.044 158.302 330.961 157.574C329.897 156.827 328.619 156.454 327.125 156.454C325.595 156.454 324.232 156.818 323.037 157.546C321.843 158.274 320.909 159.291 320.237 160.598C319.565 161.886 319.229 163.398 319.229 165.134C319.229 166.851 319.565 168.363 320.237 169.67C320.909 170.977 321.843 171.994 323.037 172.722C324.232 173.431 325.595 173.786 327.125 173.786C328.619 173.786 329.897 173.422 330.961 172.694C332.044 171.966 332.847 170.995 333.369 169.782L335.469 170.706C335.133 171.565 334.573 172.395 333.789 173.198C333.024 173.982 332.072 174.626 330.933 175.13C329.813 175.634 328.544 175.886 327.125 175.886ZM343.12 175.55V154.69H345.36V164.07H356.56V154.69H358.8V175.55H356.56V166.17H345.36V175.55H343.12ZM367.378 175.55V154.69H369.618V175.55H367.378ZM381.794 175.55V156.79H376.026V154.69H389.746V156.79H384.034V175.55H381.794ZM396.15 175.55V154.69H409.59V156.79H398.39V164.042H409.03V166.142H398.39V173.45H409.59V175.55H396.15ZM416.934 175.55V154.69H419.174V166.87L418.67 166.618L429.17 154.69H431.97L423.542 164.266L423.654 162.67L432.474 175.55H429.786L422.674 165.274L419.174 169.25V175.55H416.934ZM442.507 175.55V156.79H436.739V154.69H450.459V156.79H444.747V175.55H442.507ZM464.199 175.886C462.724 175.886 461.427 175.578 460.307 174.962C459.187 174.346 458.319 173.506 457.703 172.442C457.087 171.359 456.779 170.127 456.779 168.746V154.69H459.019V168.746C459.019 169.754 459.233 170.641 459.663 171.406C460.111 172.153 460.717 172.741 461.483 173.17C462.267 173.581 463.172 173.786 464.199 173.786C465.225 173.786 466.121 173.581 466.887 173.17C467.671 172.741 468.277 172.153 468.707 171.406C469.155 170.641 469.379 169.754 469.379 168.746V154.69H471.619V168.746C471.619 170.127 471.311 171.359 470.695 172.442C470.079 173.506 469.211 174.346 468.091 174.962C466.989 175.578 465.692 175.886 464.199 175.886ZM480.108 175.55V154.69H487.276C488.639 154.69 489.833 154.961 490.86 155.502C491.887 156.025 492.68 156.771 493.24 157.742C493.819 158.694 494.108 159.805 494.108 161.074C494.108 162.549 493.716 163.809 492.932 164.854C492.167 165.899 491.121 166.637 489.796 167.066L494.668 175.55H492.036L486.94 166.562L488.452 167.43H482.348V175.55H480.108ZM482.348 165.33H487.388C488.284 165.33 489.068 165.162 489.74 164.826C490.412 164.471 490.935 163.977 491.308 163.342C491.681 162.689 491.868 161.923 491.868 161.046C491.868 160.169 491.681 159.413 491.308 158.778C490.935 158.143 490.412 157.658 489.74 157.322C489.068 156.967 488.284 156.79 487.388 156.79H482.348V165.33Z" fill="#B79B78"/>
<path id="letter-s" d="M133.559 115.35C125.459 115.35 118.409 113.35 112.409 109.35C106.409 105.35 102.159 99.95 99.6586 93.15L110.759 87.75C113.059 92.55 116.209 96.35 120.209 99.15C124.209 101.95 128.659 103.35 133.559 103.35C137.959 103.35 141.609 102.3 144.509 100.2C147.409 98.1 148.859 95.35 148.859 91.95C148.859 89.55 148.159 87.65 146.759 86.25C145.459 84.75 143.859 83.6 141.959 82.8C140.059 81.9 138.309 81.25 136.709 80.85L124.559 77.4C117.259 75.3 111.909 72.3 108.509 68.4C105.209 64.5 103.559 59.95 103.559 54.75C103.559 49.95 104.759 45.8 107.159 42.3C109.659 38.7 113.009 35.9 117.209 33.9C121.509 31.9 126.309 30.9 131.609 30.9C138.709 30.9 145.059 32.7 150.659 36.3C156.359 39.9 160.409 44.95 162.809 51.45L151.409 56.7C149.609 52.5 146.909 49.2 143.309 46.8C139.709 44.3 135.659 43.05 131.159 43.05C127.059 43.05 123.809 44.1 121.409 46.2C119.009 48.2 117.809 50.75 117.809 53.85C117.809 56.15 118.409 58.05 119.609 59.55C120.809 60.95 122.259 62.05 123.959 62.85C125.659 63.55 127.309 64.15 128.909 64.65L142.109 68.55C148.709 70.45 153.809 73.4 157.409 77.4C161.109 81.4 162.959 86.2 162.959 91.8C162.959 96.3 161.709 100.35 159.209 103.95C156.709 107.55 153.259 110.35 148.859 112.35C144.459 114.35 139.359 115.35 133.559 115.35Z" fill="#10231D"/>
<path id="letter-h" d="M173.72 113.55V0H187.67V48.45L185.12 47.1C187.12 42 190.32 38.05 194.72 35.25C199.22 32.35 204.47 30.9 210.47 30.9C216.27 30.9 221.42 32.2 225.92 34.8C230.52 37.4 234.12 41 236.72 45.6C239.42 50.2 240.77 55.4 240.77 61.2V113.55H226.67V65.7C226.67 61.2 225.82 57.4 224.12 54.3C222.52 51.2 220.27 48.8 217.37 47.1C214.47 45.3 211.12 44.4 207.32 44.4C203.62 44.4 200.27 45.3 197.27 47.1C194.27 48.8 191.92 51.25 190.22 54.45C188.52 57.55 187.67 61.3 187.67 65.7V113.55H173.72Z" fill="#10231D"/>
<path id="letter-a" d="M276.932 115.35C271.632 115.35 266.932 114.4 262.832 112.5C258.832 110.5 255.682 107.8 253.382 104.4C251.082 100.9 249.932 96.9 249.932 92.4C249.932 88.1 250.832 84.25 252.632 80.85C254.532 77.35 257.432 74.4 261.332 72C265.332 69.6 270.332 67.9 276.332 66.9L306.332 61.95V73.65L279.482 78.15C274.282 79.05 270.482 80.7 268.082 83.1C265.782 85.5 264.632 88.45 264.632 91.95C264.632 95.25 265.932 98 268.532 100.2C271.232 102.4 274.582 103.5 278.582 103.5C283.682 103.5 288.082 102.45 291.782 100.35C295.582 98.15 298.532 95.2 300.632 91.5C302.832 87.8 303.932 83.7 303.932 79.2V58.65C303.932 54.25 302.282 50.7 298.982 48C295.782 45.2 291.532 43.8 286.232 43.8C281.632 43.8 277.532 45 273.932 47.4C270.432 49.7 267.832 52.8 266.132 56.7L253.982 50.4C255.482 46.7 257.882 43.4 261.182 40.5C264.482 37.5 268.332 35.15 272.732 33.45C277.132 31.75 281.732 30.9 286.532 30.9C292.732 30.9 298.182 32.1 302.882 34.5C307.582 36.8 311.232 40.05 313.832 44.25C316.532 48.35 317.882 53.15 317.882 58.65V113.55H304.232V98.25L306.782 99.15C305.082 102.35 302.782 105.15 299.882 107.55C296.982 109.95 293.582 111.85 289.682 113.25C285.782 114.65 281.532 115.35 276.932 115.35Z" fill="#10231D"/>
<g id="letter-p">
<path id="Subtract" d="M374.011 30.9C381.611 30.9 388.411 32.7498 394.411 36.4498C400.511 40.1498 405.311 45.2003 408.811 51.6002C412.311 57.9001 414.061 65.0999 414.061 73.1998C414.061 81.0998 412.311 88.25 408.811 94.65C405.311 101.05 400.511 106.1 394.411 109.8C388.411 113.5 381.561 115.35 373.861 115.35C367.361 115.35 361.411 113.9 356.011 111C351.959 108.783 348.61 105.864 345.961 102.245V143.55H332.011V32.6998H345.661V44.0582C348.434 40.4614 351.935 37.5253 356.161 35.2496C361.361 32.3498 367.311 30.9 374.011 30.9ZM372.811 44.4C367.711 44.4 363.111 45.65 359.011 48.15C355.011 50.6499 351.811 54.0998 349.411 58.4996C347.111 62.7996 345.961 67.6999 345.961 73.1998C345.961 78.5998 347.111 83.5 349.411 87.9C351.811 92.1999 355.011 95.6002 359.011 98.1002C363.111 100.6 367.711 101.85 372.811 101.85C377.911 101.85 382.461 100.6 386.461 98.1002C390.461 95.6002 393.561 92.2 395.761 87.9C398.061 83.5 399.211 78.5998 399.211 73.1998C399.211 67.5999 398.061 62.6996 395.761 58.4996C393.561 54.1999 390.461 50.8003 386.461 48.3004C382.461 45.7004 377.911 44.4 372.811 44.4Z" fill="#10231D"/>
</g>
<path id="letter-e" d="M462.053 115.35C454.253 115.35 447.303 113.5 441.203 109.8C435.103 106.1 430.303 101.05 426.803 94.65C423.303 88.15 421.553 80.9 421.553 72.9C421.553 64.8 423.253 57.6 426.653 51.3C430.153 45 434.853 40.05 440.753 36.45C446.753 32.75 453.453 30.9 460.853 30.9C466.853 30.9 472.153 32 476.753 34.2C481.453 36.3 485.403 39.2 488.603 42.9C491.903 46.5 494.403 50.65 496.103 55.35C497.903 59.95 498.803 64.75 498.803 69.75C498.803 70.85 498.703 72.1 498.503 73.5C498.403 74.8 498.253 76.05 498.053 77.25H431.753V65.25H489.953L483.353 70.65C484.253 65.45 483.753 60.8 481.853 56.7C479.953 52.6 477.153 49.35 473.453 46.95C469.753 44.55 465.553 43.35 460.853 43.35C456.153 43.35 451.853 44.55 447.953 46.95C444.053 49.35 441.003 52.8 438.803 57.3C436.703 61.7 435.853 66.95 436.253 73.05C435.853 78.95 436.753 84.15 438.953 88.65C441.253 93.05 444.453 96.5 448.553 99C452.753 101.4 457.303 102.6 462.203 102.6C467.603 102.6 472.153 101.35 475.853 98.85C479.553 96.35 482.553 93.15 484.853 89.25L496.553 95.25C494.953 98.95 492.453 102.35 489.053 105.45C485.753 108.45 481.803 110.85 477.203 112.65C472.703 114.45 467.653 115.35 462.053 115.35Z" fill="#10231D"/>
</g>
</svg>
