<?xml version="1.0" encoding="iso-8859-1"?>
<!-- Uploaded to: SVG Repo, www.svgrepo.com, Generator: SVG Repo Mixer Tools -->
<!DOCTYPE svg PUBLIC "-//W3C//DTD SVG 1.1//EN" "http://www.w3.org/Graphics/SVG/1.1/DTD/svg11.dtd">
<svg height="800px" width="800px" version="1.1" id="Capa_1" xmlns="http://www.w3.org/2000/svg" xmlns:xlink="http://www.w3.org/1999/xlink" 
	 viewBox="0 0 372.859 372.859" xml:space="preserve">
<g>
	<path style="fill:#999999;" d="M318.287,226.533H176.18c-30.139,0-54.572,24.433-54.572,54.572v91.314h251.252v-91.314
		C372.859,250.966,348.427,226.533,318.287,226.533z"/>
	<path style="fill:#666666;" d="M346.753,291.797c0,10.453-4.101,19.949-10.768,26.965c-0.228,0.239-0.457,0.479-0.696,0.718
		c-4.035,4.035-8.93,7.19-14.401,9.159c-2.48,0.892-5.069,1.533-7.745,1.914c-1.817,0.261-3.666,0.392-5.547,0.392H186.868
		c-7.549,0-14.586-2.132-20.569-5.831c-11.16-6.896-18.589-19.242-18.589-33.317c0-14.075,7.429-26.421,18.589-33.328
		c5.982-3.698,13.02-5.83,20.569-5.83h120.727c1.882,0,3.731,0.131,5.547,0.391c2.676,0.381,5.265,1.034,7.745,1.925
		c5.787,2.078,10.943,5.493,15.098,9.877C342.652,271.849,346.753,281.344,346.753,291.797z"/>
	<path style="fill:#B3B3B3;" d="M196.679,176.639H54.572C24.433,176.639,0,201.072,0,231.212V372.42h251.252V231.212
		C251.252,201.072,226.819,176.639,196.679,176.639z"/>
	<path style="fill:#666666;" d="M225.145,241.903c0,10.453-4.101,19.949-10.768,26.965c-0.229,0.24-0.457,0.479-0.696,0.718
		c-5.852,5.852-13.542,9.855-22.146,11.073c-1.817,0.261-3.666,0.392-5.548,0.392H65.261c-7.549,0-14.586-2.132-20.569-5.831
		c-11.16-6.896-18.589-19.242-18.589-33.317c0-14.075,7.429-26.421,18.589-33.327c5.982-3.699,13.02-5.831,20.569-5.831h120.727
		c1.882,0,3.731,0.131,5.548,0.392c8.941,1.261,16.914,5.547,22.842,11.801C221.044,221.955,225.145,231.45,225.145,241.903z"/>
	<path style="fill:#CE3E3E;" d="M67.534,101.587v179.464h-2.273c-7.549,0-14.586-2.132-20.569-5.831V101.587
		c0-14.412-11.682-26.105-26.095-26.105c-3.154,0-6.004-1.273-8.071-3.339c-2.067-2.067-3.35-4.928-3.35-8.082
		c0-3.143,1.284-6.004,3.35-8.071c2.067-2.067,4.917-3.35,8.071-3.35c13.51,0,25.746,5.482,34.6,14.336
		C62.063,75.841,67.534,88.067,67.534,101.587z"/>
	<path style="fill:#F74B4B;" d="M98.534,49.387v231.664H75.692V49.387c0-14.424-11.682-26.105-26.105-26.105
		c-3.155,0-6.015-1.284-8.082-3.35c-2.067-2.067-3.339-4.917-3.339-8.071s1.273-6.004,3.339-8.071
		c2.067-2.067,4.927-3.35,8.082-3.35c13.52,0,25.757,5.482,34.611,14.336C93.063,23.63,98.534,35.867,98.534,49.387z"/>
	<path style="fill:#F74B4B;" d="M286.504,165.774v165.171h-22.842V165.774c0-14.423-11.682-26.105-26.105-26.105
		c-3.154,0-6.015-1.284-8.082-3.35c-2.067-2.067-3.339-4.917-3.339-8.071s1.273-6.004,3.339-8.071
		c2.067-2.067,4.927-3.35,8.082-3.35c13.52,0,25.757,5.482,34.611,14.336C281.033,140.016,286.504,152.253,286.504,165.774z"/>
	<path style="fill:#F74B4B;" d="M206.219,28.177c0,3.154-1.273,6.004-3.339,8.071c-2.067,2.067-4.927,3.35-8.082,3.35
		c-4.949,0-9.442,2.001-12.694,5.253c-3.241,3.242-5.254,7.734-5.254,12.683v223.517h-22.842V57.534
		c0-22.527,18.263-40.779,40.79-40.779c3.154,0,6.015,1.283,8.082,3.35C204.946,22.172,206.219,25.022,206.219,28.177z"/>
	<path style="fill:#CE3E3E;" d="M243.745,86.903c0,3.154-1.284,6.015-3.35,8.082c-2.067,2.067-4.927,3.339-8.071,3.339
		c-4.96,0-9.452,2.012-12.694,5.254c-3.241,3.253-5.254,7.745-5.254,12.694v152.597c-0.229,0.24-0.457,0.479-0.696,0.718
		c-5.852,5.852-13.542,9.855-22.146,11.073V116.271c0-22.527,18.263-40.79,40.79-40.79c3.143,0,6.004,1.273,8.071,3.34
		C242.462,80.888,243.745,83.748,243.745,86.903z"/>
	<path style="fill:#CE3E3E;" d="M350.255,153.297c0,3.154-1.283,6.015-3.35,8.082c-2.067,2.067-4.927,3.339-8.071,3.339
		c-4.96,0-9.452,2.012-12.694,5.254c-3.241,3.253-5.254,7.745-5.254,12.694v145.973c-2.48,0.892-5.069,1.533-7.745,1.914
		c-1.817,0.261-3.666,0.392-5.547,0.392h-9.55V182.666c0-22.527,18.263-40.79,40.79-40.79c3.144,0,6.004,1.273,8.071,3.34
		C348.972,147.282,350.255,150.143,350.255,153.297z"/>
	<path style="fill:#CE3E3E;" d="M170.324,124.429c0,3.154-1.273,6.015-3.339,8.082c-2.067,2.067-4.927,3.339-8.082,3.339
		c-1.697,0-3.339,0.24-4.895,0.685c-2.991,0.838-5.667,2.437-7.799,4.569c-3.241,3.253-5.254,7.745-5.254,12.694v127.253h-22.842
		V153.798c0-20.862,15.674-38.081,35.895-40.496c1.599-0.196,3.241-0.294,4.895-0.294c3.154,0,6.015,1.273,8.082,3.34
		C169.051,118.414,170.324,121.275,170.324,124.429z"/>
</g>
</svg>