<?xml version="1.0" encoding="iso-8859-1"?>
<!-- Uploaded to: SVG Repo, www.svgrepo.com, Generator: SVG Repo Mixer Tools -->
<!DOCTYPE svg PUBLIC "-//W3C//DTD SVG 1.1//EN" "http://www.w3.org/Graphics/SVG/1.1/DTD/svg11.dtd">
<svg height="800px" width="800px" version="1.1" id="Capa_1" xmlns="http://www.w3.org/2000/svg" xmlns:xlink="http://www.w3.org/1999/xlink" 
	 viewBox="0 0 439.089 439.089" xml:space="preserve">
<g>
	<path style="fill:#E24747;" d="M419.835,147.121c-20.645,0-37.44,16.796-37.44,37.44v120.062c0,16.496-13.42,29.916-29.916,29.916
		H226.545v-34.119h88.479c24.022,0,43.566-19.544,43.566-43.566V133.768c0-16.303,13.264-29.566,29.567-29.566h12.188v-14h-12.188
		c-24.023,0-43.567,19.544-43.567,43.566v86.401c-12.934-3.153-22.566-14.831-22.566-28.722V60.186
		c0-24.022-19.544-43.566-43.566-43.566h-8.126v14h8.126c16.303,0,29.566,13.264,29.566,29.566v131.261
		c0,21.639,15.861,39.637,36.566,42.997v22.41c0,16.303-13.264,29.566-29.566,29.566h-47.859V123.548
		c0-24.022-19.544-43.566-43.566-43.566h-7.659v14h7.659c16.303,0,29.566,13.263,29.566,29.566v162.871h-71.312V184.866
		c0-16.303,13.264-29.566,29.566-29.566h8.126v-14h-8.126c-24.022,0-43.566,19.544-43.566,43.566v101.553h-43.787
		c-16.303,0-29.566-13.264-29.566-29.566v-22.41c20.705-3.36,36.566-21.357,36.566-42.997V60.186
		c0-16.303,13.264-29.566,29.566-29.566h8.126v-14h-8.126c-24.022,0-43.566,19.544-43.566,43.566v131.261
		c0,13.891-9.632,25.569-22.566,28.722v-86.401c0-24.022-19.544-43.566-43.566-43.566H38.743v14h12.189
		c16.303,0,29.566,13.264,29.566,29.566v123.085c0,24.022,19.544,43.566,43.566,43.566h88.479v34.119H86.61
		c-16.496,0-29.916-13.42-29.916-29.916V184.561c0-20.645-16.796-37.44-37.44-37.44H0v14h19.254c12.925,0,23.44,10.515,23.44,23.44
		v120.062c0,24.215,19.7,43.916,43.916,43.916h125.935v73.931h14v-73.931h125.934c24.216,0,43.916-19.7,43.916-43.916V184.561
		c0-12.925,10.516-23.44,23.44-23.44h19.254v-14H419.835z"/>
</g>
</svg>