<?xml version="1.0" ?>
<!-- Uploaded to: SVG Repo, www.svgrepo.com, Generator: SVG Repo Mixer Tools -->
<svg width="800px" height="800px" viewBox="0 0 960 960" version="1.1" xml:space="preserve" xmlns="http://www.w3.org/2000/svg" xmlns:xlink="http://www.w3.org/1999/xlink">
<style type="text/css">
	.st0{display:none;}
	.st1{display:inline;opacity:0.93;}
	.st2{display:inline;fill:none;stroke:#000000;stroke-width:15;stroke-linecap:round;stroke-linejoin:round;stroke-miterlimit:10;}
	.st3{display:inline;}
	.st4{fill:none;stroke:#000000;stroke-width:15;stroke-linecap:round;stroke-linejoin:round;stroke-miterlimit:10;}
	.st5{display:inline;fill:none;stroke:#1A1D3F;stroke-width:15;stroke-linecap:round;stroke-linejoin:round;stroke-miterlimit:10;}
	.st6{fill:#DDEDE7;}
	.st7{fill:#1A1D3F;}
	.st8{fill:#E9B44D;}
	.st9{fill:#ED644E;}
	.st10{fill:#494EDF;}
	.st11{fill:#3DC5A1;}
	.st12{fill:#F6CEC1;}
	.st13{fill:none;}
	.st14{fill:none;stroke:#1A1D3F;stroke-width:15;stroke-linecap:round;stroke-linejoin:round;stroke-miterlimit:10;}
	.st15{display:inline;fill:#E9B44D;}
	.st16{fill:#222222;}
	.st17{display:inline;fill:#222222;}
</style>
<g class="st0" id="guide"/>
<g class="st0" id="sketch"/>
<g class="st0" id="stroke">
<path class="st2" d="M672.5,440.1c23.3-6.4,45.3-18.3,63.4-34.2"/>
<path class="st2" d="M554.9,491.1c20.7-29.9,16.6-70.3-5-99c-39.5-52.4-43.1-124.7-3.1-173.2s116.4-62.1,170.6-30.2   c45.5,26.7,70.6,82.7,64,134.5"/>
<path class="st2" d="M674.4,339c36.1,15.2,61.3-40.2,24.4-55.7C662,267.8,637.4,323.4,674.4,339z"/>
<path class="st2" d="M742,349.3c10.1-12.1,23.3-26.9,39.1-26.2c22.7,1,36.8,27.5,59.6,27c6.2-0.1,11.7,0,17.9-0.7   c24.5-2.5,26.5,18.6,23.1,27.8c-6.3,17.2-22.9,31.2-40,37.5c-17.1,6.4-38.8,12.3-72.1,5.1c-8.5-1.8-29.6-5.8-39.3-20.3   C721,385.7,729.6,364.3,742,349.3z"/>
<path class="st2" d="M283,583.7c-13.4,3.5-29.3,10.9-29,23.6c0.2,7.4,6.4,13.8,13.7,17c7.3,3.2,15.6,3.9,23.7,4.5   c79.3,5.5,159,6.2,238.4,1.9c9.2-0.5,18.7-1.1,26.9-5c8.2-3.9,14.8-11.8,13.6-20.2c-1.8-12.5-18.1-17.9-31.8-20.3   C455,570.8,365.8,562,283,583.7z"/>
<path class="st2" d="M554.9,491.1c-55.3-8.2-96-7-162.4-10.2c-62.8-3-125.1,8.1-185.3,26.6c-29,9-57.6,20.9-81.4,39.8   s-42.5,45.5-47.4,75.5c-8.4,51.3,25.7,102.3,70.6,128.5s98.5,32.4,150.4,35.2c74.5,4,149.3,2.1,223.5-5.6   c39.6-4.1,80.3-8.8,115.6-27.3c89.6-47,116.9-132.1,107.7-195.2c-5.4-37.4-22.7-93.5-44.2-124.5"/>
</g>
<g id="outline">
<path d="M671.5,345.9c5,2.1,10.2,3.2,15.2,3.2c7.7,0,15.1-2.5,21.5-7.3c11.4-8.7,17.7-23.3,15.9-37.2c-1.6-12.8-9.6-22.8-22.4-28.2   c-10.7-4.5-21.4-4.4-31,0.3c-8.4,4.1-15.1,11.4-18.9,20.5C644.6,314.2,649.1,336.5,671.5,345.9z M665.6,302.9   c4.4-10.4,15.7-18.9,30.3-12.8c9.8,4.1,12.7,11.1,13.3,16.2c1.1,8.6-3,18-10.1,23.4c-4.4,3.4-11.8,6.5-21.8,2.3   C663.2,326.2,661.3,313.2,665.6,302.9z M884.8,351.7c-4-5.2-12-11.1-26.9-9.6c-4.4,0.4-8.5,0.5-12.9,0.6c-1.4,0-2.9,0-4.4,0.1   c-9.1,0.2-17.3-5.7-25.9-12c-7.4-5.4-15.5-11.3-25.2-13.8c4-53.7-23.4-108.3-68.3-134.7c-57.2-33.6-138-19.3-180.2,31.9   c-20.2,24.6-30.9,56.6-29.9,90.1c0.9,32.6,12.6,65.4,32.9,92.4c9.9,13.1,15.9,29.1,16.9,45.1c1,15-2.3,29.2-9.6,41.4   c-37.9-5.4-68.8-6.4-107.4-7.6c-15.8-0.5-32.2-1-50.9-1.9c-58.6-2.8-120.1,6-187.9,27c-35.8,11-62.5,24.1-83.9,41.1   c-27.5,21.8-45.3,50.3-50.2,80.1c-4.3,26,1.4,53.2,16.2,78.7c13.5,23.2,34.1,43.6,58,57.5c46.3,27,101.3,33.4,153.8,36.2   c25.4,1.4,50.8,2,76.3,2c49.6,0,99.3-2.6,148.4-7.7c35.9-3.7,80.6-8.4,118.3-28.2c42.4-22.3,74.9-55.1,94.2-95   c16.4-34.1,22.6-72.4,17.5-107.9c-5.5-37.9-22.1-92-43.4-124.5c9.2-5,17.9-10.8,25.9-17.4c11,7.3,24,10.1,30.7,11.5l1.2,0.3   c11.5,2.5,21.6,3.5,30.8,3.5c18.3,0,32.7-4.1,45.5-8.9c20.7-7.7,37.7-23.8,44.5-42C891.5,372.3,891.5,360.3,884.8,351.7z    M670.5,432.9c-4,1.1-6.3,5.2-5.2,9.2c0.9,3.3,3.9,5.5,7.2,5.5c0.7,0,1.3-0.1,2-0.3c7.5-2.1,14.9-4.7,22.1-7.8   c20.4,30.1,36.9,84,42.1,120c4.7,32.5-1,67.8-16.1,99.2c-17.8,37-48.1,67.4-87.6,88.2c-35.1,18.4-78.2,22.9-112.9,26.5   c-73.6,7.7-148.4,9.5-222.3,5.6c-50.6-2.7-103.4-8.7-147-34.1c-21.7-12.7-40.4-31.2-52.6-52.1C87,670.3,82,646.6,85.7,624.1   c4.3-26.1,20.2-51.3,44.7-70.8c19.9-15.8,45-28.1,79-38.5c66.1-20.4,125.9-29,182.8-26.3c18.8,0.9,35.2,1.4,51.1,1.9   c39.8,1.3,71.2,2.3,110.5,8.1c3.2,0.3,5.7-0.6,7.3-3.2c10.9-15.8,16-34.7,14.7-54.7c-1.2-18.9-8.3-37.7-19.9-53.1   c-18.5-24.5-29.1-54.2-29.9-83.8c-0.8-30.4,8.3-58.1,26.5-80.2c37.7-45.8,109.9-58.6,161-28.5c40.2,23.7,64.7,72.7,61,121   c-15.5,2.6-27.7,15.9-38.2,28.5c-7.3,8.7-12.8,18.8-15.5,28.3c-3.4,12-2.3,22.7,3.3,30.9c0.3,0.5,0.6,0.9,1,1.4   C709,417.9,690.3,427.4,670.5,432.9z M874.6,374.7c-5.2,14-19.2,27-35.6,33.1c-17.2,6.4-37.3,11.4-67.9,4.8l-1.2-0.3   c-7-1.5-20.4-4.3-29-11.9c-0.1-0.1-0.1-0.1-0.2-0.2c-1.6-1.4-3-3-4.2-4.8c-5-7.4-3.5-23.5,11.2-41.3c9.5-11.4,20.6-23.5,32.3-23.5   c0.3,0,0.5,0,0.8,0c8.9,0.4,16.7,6.1,25.1,12.2c9.8,7.1,20.8,15.1,35,14.8c1.4,0,2.8-0.1,4.2-0.1c4.7-0.1,9.2-0.1,14.2-0.6   c6.5-0.7,11.1,0.7,13.6,3.9C876.1,364.9,875.8,371.5,874.6,374.7z M264.6,631.3c8.7,3.9,18.4,4.5,26.2,5.1   c44.7,3.1,89.8,4.7,134.9,4.7c34.9,0,69.7-0.9,104.4-2.8c8.9-0.5,19.9-1.1,29.7-5.7c14.1-6.7,19.1-18.9,17.8-28   c-2-13.6-14.7-22.5-37.9-26.6c-74-12.9-170.3-24.7-258.7-1.4h0c-22.6,5.9-34.9,17-34.6,31C246.7,617.2,253.8,626.5,264.6,631.3z    M284.9,591c45-11.8,114.3-22.3,252.4,1.7c15.4,2.7,24.7,7.8,25.6,13.9c0.6,4.2-3.4,9.5-9.4,12.3c-6.6,3.1-14.5,3.8-24.1,4.3   c-78.8,4.3-158.7,3.6-237.5-1.9c-7-0.5-14.9-1-21.2-3.8c-5.3-2.4-9.1-6.6-9.2-10.4C261.3,599.8,273.5,594,284.9,591z"/>
</g>
<g class="st0" id="flat">
<g class="st3">
<g>
<g>
<g>
<g>
<g>
<g>
<g>
<path class="st8" d="M781.3,323.2c6.6-51.9-18.5-107.8-64-134.5c-54.2-31.9-130.7-18.3-170.6,30.2s-36.4,120.8,3.1,173.2           c21.7,28.8,25.7,69.1,5,99c-55.3-8.2-96-7-162.4-10.2c-62.8-3-125.1,8.1-185.3,26.6c-29,9-57.6,20.9-81.4,39.8           s-42.5,45.5-47.4,75.5c-8.4,51.3,25.7,102.3,70.6,128.5s98.5,32.4,150.4,35.2c74.5,4,149.3,2.1,223.5-5.6           c39.6-4.1,80.3-8.8,115.6-27.3c89.6-47,116.9-132.1,107.7-195.2c-5.4-37.4-24.8-97.6-46.4-128.6c13-6.3,25.3-14.4,36.1-24           L781.3,323.2z M556.7,625.7c-8.2,3.9-17.7,4.5-26.9,5c-79.4,4.3-159.1,3.7-238.4-1.9c-8.1-0.6-16.4-1.2-23.7-4.5           c-7.3-3.2-13.5-9.6-13.7-17c-0.3-12.7,15.5-20.1,29-23.6c82.8-21.8,172.1-12.9,255.6,1.6c13.6,2.4,30,7.7,31.8,20.3           C571.5,613.9,564.9,621.9,556.7,625.7z"/>
</g>
</g>
</g>
</g>
</g>
</g>
</g>
<g>
<g>
<g>
<g>
<g>
<g>
<g>
<path class="st7" d="M674.4,339c36.1,15.2,61.3-40.2,24.4-55.7C662,267.8,637.4,323.4,674.4,339z"/>
</g>
</g>
</g>
</g>
</g>
</g>
</g>
<g>
<g>
<g>
<g>
<g>
<g>
<g>
<path class="st9" d="M742,349.3c10.1-12.1,23.3-26.9,39.1-26.2c22.7,1,36.8,27.5,59.6,27c6.2-0.1,11.7,0,17.9-0.7           c24.5-2.5,26.5,18.6,23.1,27.8c-6.3,17.2-22.9,31.2-40,37.5c-17.1,6.4-38.8,12.3-72.1,5.1c-8.5-1.8-29.6-5.8-39.3-20.3           C721,385.7,729.6,364.3,742,349.3z"/>
</g>
</g>
</g>
</g>
</g>
</g>
</g>
<g>
<g>
<g>
<g>
<g>
<g>
<g>
<g>
<path class="st7" d="M672.5,447.6c-3.3,0-6.3-2.2-7.2-5.5c-1.1-4,1.2-8.1,5.2-9.2c22.3-6.1,43.2-17.4,60.4-32.6            c3.1-2.7,7.8-2.5,10.6,0.7c2.7,3.1,2.5,7.8-0.7,10.6c-18.9,16.7-41.9,29.1-66.3,35.9C673.8,447.5,673.1,447.6,672.5,447.6            z"/>
</g>
</g>
</g>
</g>
</g>
</g>
</g>
</g>
</g>
</g>
<g class="st0" id="colored_x5F_line">
<g class="st3">
<path class="st8" d="M699.7,429.9c13-6.3,25.3-14.4,36.1-24l0,0c-2.1-1.8-4-3.9-5.5-6.3c-9.3-13.9-0.7-35.3,11.7-50.2    c10.1-12.1,23.3-26.9,39.1-26.2c0.1,0,0.1,0,0.2,0c6.6-51.9-18.5-107.8-64-134.5c-54.2-31.9-130.7-18.3-170.6,30.2    s-36.4,120.8,3.1,173.2c21.7,28.8,25.7,69.1,5,99c-55.3-8.2-96-7-162.4-10.2c-62.8-3-125.1,8.1-185.3,26.6    c-29,9-57.6,20.9-81.4,39.8s-42.5,45.5-47.4,75.5c-8.4,51.3,25.7,102.3,70.6,128.5s98.5,32.4,150.4,35.2    c74.5,4,149.3,2.1,223.5-5.6c39.6-4.1,80.3-8.8,115.6-27.3c89.6-47,116.9-132.1,107.7-195.2C740.7,521.1,721.3,460.8,699.7,429.9z     M556.7,625.7c-8.2,3.9-17.7,4.5-26.9,5c-79.4,4.3-159.1,3.7-238.4-1.9c-8.1-0.6-16.4-1.2-23.7-4.5c-7.3-3.2-13.5-9.6-13.7-17    c-0.3-12.7,15.5-20.1,29-23.6c82.8-21.8,172.1-12.9,255.6,1.6c13.6,2.4,30,7.7,31.8,20.3C571.5,613.9,564.9,621.9,556.7,625.7z"/>
</g>
<g class="st3">
<path class="st16" d="M674.4,339c36.1,15.2,61.3-40.2,24.4-55.7C662,267.8,637.4,323.4,674.4,339z"/>
</g>
<g class="st3">
<path class="st16" d="M798.7,430.7c-9.2,0-19.3-1-30.8-3.5l-1.2-0.3c-9.5-2-31.8-6.8-42.8-23.2c-5.5-8.3-6.6-19-3.3-30.9    c2.7-9.5,8.2-19.5,15.5-28.3c12-14.4,26.4-29.7,45.2-28.9c13.3,0.6,23.9,8.3,33.2,15c8.6,6.3,16.8,12.2,25.9,12    c1.5,0,2.9-0.1,4.4-0.1c4.4-0.1,8.6-0.1,12.9-0.6c14.9-1.5,22.9,4.4,26.9,9.6c6.7,8.6,6.7,20.7,3.9,28.2    c-6.7,18.2-23.8,34.3-44.5,42C831.4,426.6,817.1,430.7,798.7,430.7z M780,330.6c-11.7,0-22.8,12.1-32.3,23.5l0,0    c-14.8,17.7-16.2,33.8-11.2,41.3c7.6,11.4,25,15.1,33.4,16.9l1.2,0.3c30.6,6.6,50.7,1.6,67.9-4.8c16.5-6.1,30.5-19.1,35.6-33.1    c1.2-3.2,1.4-9.7-1.7-13.8c-2.5-3.2-7.1-4.5-13.6-3.9c-5,0.5-9.5,0.6-14.2,0.6c-1.4,0-2.8,0-4.2,0.1c-14.2,0.3-25.3-7.7-35-14.8    c-8.3-6.1-16.2-11.8-25.1-12.2C780.5,330.6,780.3,330.6,780,330.6z M742,349.3L742,349.3L742,349.3z"/>
</g>
<g class="st3">
<path class="st16" d="M425.8,641c-45.1,0-90.2-1.6-134.9-4.7c-7.8-0.5-17.5-1.2-26.2-5.1c-10.8-4.8-17.9-14.1-18.1-23.7    c-0.3-14.1,12-25.1,34.6-31h0c88.4-23.2,184.7-11.4,258.7,1.4c23.2,4,35.9,13,37.9,26.6c1.3,9.1-3.7,21.4-17.8,28    c-9.8,4.6-20.8,5.2-29.7,5.7C495.5,640.1,460.7,641,425.8,641z M284.9,591L284.9,591c-11.4,3-23.6,8.8-23.4,16.2    c0.1,3.7,3.9,8,9.2,10.4c6.3,2.8,14.2,3.4,21.2,3.8c78.7,5.5,158.6,6.1,237.5,1.9c9.6-0.5,17.5-1.2,24.1-4.3    c5.9-2.8,10-8.1,9.4-12.3c-0.9-6.2-10.2-11.3-25.6-13.9C399.2,568.7,329.9,579.2,284.9,591z"/>
</g>
</g>
</svg>