<?xml version="1.0" encoding="iso-8859-1"?>
<!-- Uploaded to: SVG Repo, www.svgrepo.com, Generator: SVG Repo Mixer Tools -->
<!DOCTYPE svg PUBLIC "-//W3C//DTD SVG 1.1//EN" "http://www.w3.org/Graphics/SVG/1.1/DTD/svg11.dtd">
<svg height="800px" width="800px" version="1.1" id="Capa_1" xmlns="http://www.w3.org/2000/svg" xmlns:xlink="http://www.w3.org/1999/xlink" 
	 viewBox="0 0 437.657 437.657" xml:space="preserve">
<g>
	<path style="fill:#4D4D4D;" d="M437.65,302.586c-28.461-25.569-67.933-16.5-67.933-16.5l-13.477-44.297l-163.715-9.634
		c0,0-61.621-18.287-39.477-50.166c2.175-3.129,4.908-6.098,8.069-8.908c12.623-11.225,29.126-17.093,46.017-17.093h85.363
		c38.986,0,75.603,15.297,103.106,43.059C423.09,226.809,438.026,263.585,437.65,302.586z"/>
	<path style="fill:#4D4D4D;" d="M95.948,272.628c-55.41-20.367-95.349-73.061-95.941-134.696
		c-0.159-16.337,2.369-32.277,7.379-47.326c8.323-24.999,34.385-39.533,60.208-34.303l26.711,5.41L50.968,168.598
		c0,0,47.19,55.857,37.484,72.208C78.976,256.739,95.154,271.906,95.948,272.628z"/>
	<path style="fill:#666666;" d="M411.652,302.333c-0.06,6.69-0.69,13.24-1.84,19.6c-10.01,56.13-59.92,98.39-118.84,98.39h-167.28
		c-19.74,0-39.21-3.23-57.67-9.46c-18.45-6.22-35.9-15.42-51.61-27.36c-0.01,0-0.02-0.01-0.03-0.02c0.01-0.01,0.02-0.02,0.03-0.02
		c0.44-0.35,0.89-0.68,1.34-1c31.18-23.25,69.03-35.81,107.94-35.81h167.84c0.32,0,0.63-0.01,0.95-0.01
		c24.33-0.49,44.76-19.69,45.48-44.1c0.72-24.43-17.89-44.74-41.65-46.72c-0.19-0.02-0.37-0.03-0.54-0.04
		c-0.68-0.06-1.36-0.09-2.06-0.11c-0.41-0.01-0.81-0.01-1.22-0.01h-145.81c-29.64,0-57.01-10.69-78.16-28.47
		c-25.65-21.57-42.17-53.56-42.51-89.52c-0.65-66.24,53.05-120.34,119.16-120.34h173.88c9.7,0,19.02,2.62,27.1,7.35
		c0.7,0.41,1.38,0.83,2.05,1.27c7.2,4.65,13.29,11.04,17.63,18.77c2.77,4.95,6.78,8.96,11.51,11.73c4.74,2.76,10.19,4.3,15.86,4.3
		c2.79,0,5.44,0.64,7.79,1.78c3.81,1.83,6.87,4.98,8.59,8.86h-25.39c-4.79,0-8.67,3.88-8.67,8.66h35.61v0
		c0,6.047-4.902,10.95-10.95,10.95h-254.05c-24.76,0-45.71,19.37-46.44,44.11c-0.77,25.72,19.93,46.88,45.48,46.88h147.32
		C358.582,181.994,412.292,236.094,411.652,302.333z"/>
	<path style="fill:#CCCCCC;" d="M411.132,80.054L411.132,80.054c0,6.047-4.902,10.95-10.95,10.95h-72.84
		c-3.04-6.47-4.74-13.69-4.74-21.31c0-18.78,10.32-35.14,25.6-43.74c7.2,4.65,13.29,11.04,17.63,18.77
		c2.77,4.95,6.78,8.96,11.51,11.73c4.74,2.76,10.19,4.3,15.86,4.3c7.31,0,13.6,4.37,16.38,10.64h-25.39c-4.79,0-8.67,3.88-8.67,8.66
		H411.132z"/>
	<path style="fill:#CCCCCC;" d="M411.132,80.054L411.132,80.054c0,6.047-4.902,10.95-10.95,10.95h-254.05
		c-24.76,0-45.71,19.37-46.44,44.11c-0.77,25.72,19.93,46.88,45.48,46.88h-0.526c-33.065,0-60.52-26.491-60.614-59.556
		c-0.047-16.569,6.642-31.566,17.49-42.414c10.81-10.8,25.75-17.49,42.24-17.49h257.23c3.81,1.83,6.87,4.98,8.59,8.86h-25.39
		c-4.79,0-8.67,3.88-8.67,8.66H411.132z"/>
	<path style="fill:#CCCCCC;" d="M352.45,286.925c0,32.993-26.738,59.73-59.73,59.73h-1.193c0.322,0,0.634-0.01,0.956-0.01
		c25.008-0.645,45.061-21.547,44.309-46.866c-0.688-23.46-19.57-42.095-42.632-43.954c-0.183-0.022-0.365-0.032-0.537-0.042
		c-0.688-0.054-1.376-0.086-2.064-0.108c-0.408-0.011-0.806-0.011-1.214-0.011H146.683c-29.639,0-57.011-10.693-78.161-28.468
		H292.72c16.496,0,31.434,6.684,42.235,17.495C345.766,255.491,352.45,270.429,352.45,286.925z"/>
	<g>
		<circle style="fill:#FFFFFF;" cx="349.562" cy="66.527" r="14.056"/>
		<circle style="fill:#4D4D4D;" cx="349.562" cy="66.527" r="8.6"/>
	</g>
	<path style="fill:#666666;" d="M237.698,101.002H207.45v-3.277c0-18.188,14.744-32.932,32.932-32.932h33.524v0
		C273.906,84.791,257.695,101.002,237.698,101.002z"/>
	<path style="fill:#CCCCCC;" d="M409.816,321.937c-10.016,56.13-59.923,98.386-118.847,98.386H123.696
		c-19.742,0-39.215-3.235-57.677-9.457c-18.452-6.222-35.894-15.421-51.606-27.361v-1.053l1.343,0.011l314.781,1.526
		C368.914,384.172,401.197,357.692,409.816,321.937z"/>
</g>
</svg>