<?xml version="1.0" encoding="iso-8859-1"?>
<!-- Uploaded to: SVG Repo, www.svgrepo.com, Generator: SVG Repo Mixer Tools -->
<!DOCTYPE svg PUBLIC "-//W3C//DTD SVG 1.1//EN" "http://www.w3.org/Graphics/SVG/1.1/DTD/svg11.dtd">
<svg height="800px" width="800px" version="1.1" id="Capa_1" xmlns="http://www.w3.org/2000/svg" xmlns:xlink="http://www.w3.org/1999/xlink" 
	 viewBox="0 0 573.231 573.231" xml:space="preserve">
<g>
	<path style="fill:#A7C7CA;" d="M542.7,241.306c-1.674,25.737-7.957,50.212-18.051,72.615
		c-11.639,25.892-28.351,49.002-48.873,68.07c-9.592,8.923-20.02,16.956-31.157,23.986c-29.702,18.759-64.413,30.295-101.673,32.174
		c-3.566,0.18-7.158,0.27-10.763,0.27c-39.204,0-75.91-10.686-107.364-29.316c-13.622-8.06-26.252-17.626-37.672-28.454
		c-26.355-24.939-46.26-56.611-56.997-92.274c-5.832-19.299-8.948-39.758-8.948-60.937l16.982-4.081
		c62.302-14.922,125.917-22.389,189.519-22.389c69.19,0,138.367,8.832,205.805,26.471l-11.356,11.343
		c-3.154,3.155-3.476,8.343-0.412,11.6c3.167,3.36,8.459,3.412,11.703,0.18L542.7,241.306z"/>
	<path style="fill:#92B2B2;" d="M542.7,241.306c-1.674,25.737-7.957,50.212-18.051,72.615c-1.313,0.245-2.343,0.154-2.91-0.451
		c-3.064-3.257-2.742-8.446,0.412-11.6l11.356-11.343c-129.431-33.848-265.223-35.251-395.324-4.081l-8.034,1.931
		c-5.832-19.299-8.948-39.758-8.948-60.937l16.982-4.081c62.302-14.922,125.917-22.389,189.519-22.389
		c69.19,0,138.367,8.832,205.805,26.471l-11.356,11.343c-3.154,3.155-3.476,8.343-0.412,11.6c3.167,3.36,8.459,3.412,11.703,0.18
		L542.7,241.306z"/>
	<path style="fill:#FFFFFF;" d="M491.445,332.811h57.508v12.875H478.57l0,0C478.57,338.575,484.334,332.811,491.445,332.811z"/>
	<path style="fill:#92B2B2;" d="M342.943,438.132v0.013c-3.566,0.18-7.158,0.27-10.763,0.27c-39.204,0-75.91-10.686-107.364-29.316
		c8.15-3.798,18.527-6.862,29.406-5.485c24.282,3.077,62.044,6.515,62.044,6.515l14.162-7.3
		C330.429,402.829,341.283,416.361,342.943,438.132z"/>
	<path style="fill:#A7C7CA;" d="M285.252,461.754h-62.976V442.67c0-22.003,17.837-39.841,39.841-39.841h68.309v13.753
		C330.425,441.53,310.2,461.754,285.252,461.754z"/>
	<path style="fill:#A7C7CA;" d="M140.037,370.991h-20.111v-5.332c0-22.003,17.837-39.841,39.841-39.841h25.444v0
		C185.209,350.766,164.985,370.991,140.037,370.991z"/>
	<path style="fill:#92B2B2;" d="M537.968,138.969L537.968,138.969c-19.475,0-35.263,15.788-35.263,35.263v131.737h70.525V174.232
		C573.231,154.757,557.443,138.969,537.968,138.969z"/>
	<circle style="fill:#A7C7CA;" cx="537.968" cy="305.969" r="35.263"/>
	<circle style="fill:#FFFFFF;" cx="537.968" cy="305.969" r="23.729"/>
	<circle style="fill:#4E4E4E;" cx="537.968" cy="305.969" r="13.344"/>
	<path style="fill:#92B2B2;" d="M40.496,120.076c-3.293-4.519,1.615-10.49,6.633-8.022c0.067,0.033,0.134,0.066,0.201,0.099
		c21.578,10.646,40.226,24.85,55.593,41.568c25.606,27.861,42.064,62.676,47.739,99.52c-33.926,48.077-87.681,76.561-144.247,79.677
		c-0.089,0.005-0.179,0.01-0.269,0.014c-6.263,0.319-8.541-8.083-3.011-11.042c29.189-15.619,54.53-39.007,72.563-68.989
		C81.042,205.611,68.209,158.109,40.496,120.076z"/>
	<path style="fill:#92B2B2;" d="M269.13,123.274l7.19,116.194h83.916c7.231-56.784-32.883-108.72-89.677-116.046
		C270.081,123.36,269.607,123.328,269.13,123.274z"/>
</g>
</svg>