<?xml version="1.0" encoding="iso-8859-1"?>
<!-- Uploaded to: SVG Repo, www.svgrepo.com, Generator: SVG Repo Mixer Tools -->
<!DOCTYPE svg PUBLIC "-//W3C//DTD SVG 1.1//EN" "http://www.w3.org/Graphics/SVG/1.1/DTD/svg11.dtd">
<svg height="800px" width="800px" version="1.1" id="Capa_1" xmlns="http://www.w3.org/2000/svg" xmlns:xlink="http://www.w3.org/1999/xlink" 
	 viewBox="0 0 385.186 385.186" xml:space="preserve">
<g>
	<path style="fill:#F9D25B;" d="M233.447,341.618h-81.708c-26.221,0-48.996,18.042-54.995,43.568l0,0h191.699l0,0
		C282.443,359.66,259.668,341.618,233.447,341.618z"/>
	<g id="XMLID_16_">
		<g>
			<path style="fill:#E3A80C;" d="M366.866,174.266c0,17.457-7.291,34.115-20.1,45.966l-154.18,142.619L354.71,110.319
				C362.596,130.274,366.866,151.9,366.866,174.266z"/>
			<path style="fill:#F9D25B;" d="M354.71,110.319L192.586,362.851l83.582-341.502c23.208,12.65,42.931,30.296,57.992,51.282
				C342.51,84.264,349.423,96.914,354.71,110.319z"/>
			<path style="fill:#E3A80C;" d="M276.168,21.349l-83.582,341.502V0c18.822,0,37.659,3.05,55.741,9.15
				C258.072,12.432,267.366,16.528,276.168,21.349z"/>
			<path style="fill:#F9D25B;" d="M192.586,0v362.851L109.004,21.349c8.801-4.822,18.111-8.917,27.856-12.2
				C154.941,3.05,173.763,0,192.586,0z"/>
			<path style="fill:#E3A80C;" d="M109.004,21.349l83.582,341.502L30.462,110.334v-0.015c5.301-13.405,12.214-26.055,20.565-37.688
				C66.087,51.645,85.81,34.014,109.004,21.349z"/>
			<path style="fill:#F9D25B;" d="M30.462,110.334l162.124,252.518L38.42,220.232c-6.405-5.926-11.43-13.056-14.857-20.885
				c-3.428-7.828-5.243-16.353-5.243-25.082C18.32,151.9,22.59,130.289,30.462,110.334z"/>
		</g>
	</g>
</g>
</svg>