<?xml version="1.0" encoding="iso-8859-1"?>
<!-- Uploaded to: SVG Repo, www.svgrepo.com, Generator: SVG Repo Mixer Tools -->
<!DOCTYPE svg PUBLIC "-//W3C//DTD SVG 1.1//EN" "http://www.w3.org/Graphics/SVG/1.1/DTD/svg11.dtd">
<svg height="800px" width="800px" version="1.1" id="Capa_1" xmlns="http://www.w3.org/2000/svg" xmlns:xlink="http://www.w3.org/1999/xlink" 
	 viewBox="0 0 382.085 382.085" xml:space="preserve">
<g>
	<path style="fill:#F9D25B;" d="M252.07,117.223c1.993,1.993,3.968,4.019,5.91,6.063c0.681,0.698,1.345,1.396,2.001,2.104
		c27.557,29.38,50.218,63.418,66.628,100.828c19.212,43.789,29.874,92.193,29.874,143.067c-40.928,0-80.254-6.898-116.855-19.604
		c-7.443-2.572-14.775-5.39-21.988-8.448c-23.623-9.997-45.943-22.456-66.637-37.087c-5.501-3.883-10.883-7.92-16.129-12.11
		c-18.658-14.809-35.792-31.466-51.129-49.682c-2.683-3.176-5.297-6.404-7.86-9.666c-1.516-1.941-3.032-3.9-4.513-5.876
		c-14.418-19.169-26.927-39.838-37.3-61.723c-2.938-6.208-5.697-12.51-8.269-18.914C16.291,122.63,9.223,97.832,4.922,72.088
		c-1.26-7.443-2.274-14.962-3.049-22.567C0.639,37.454,0,25.2,0,12.801c7.656,0.009,15.252,0.247,22.788,0.715
		c4.667,0.306,9.308,0.69,13.915,1.158c16.453,1.686,32.556,4.488,48.26,8.337c4.403,1.064,8.771,2.231,13.106,3.466
		c15.456,4.42,30.487,9.845,45.007,16.223c4.079,1.78,8.107,3.645,12.101,5.578c14.349,6.957,28.17,14.852,41.379,23.597
		c3.756,2.478,7.46,5.041,11.105,7.664c4.139,2.964,8.209,6.029,12.212,9.163c9.265,7.256,18.173,14.971,26.672,23.112
		C248.408,113.595,250.248,115.4,252.07,117.223z"/>
	<path style="fill:#C6A342;" d="M36.703,14.674l-0.673,0.928C26.007,29.577,17.278,44.624,10.091,60.345
		c-0.962,2.121-1.916,4.25-2.844,6.387l-2.325,5.356c-1.26-7.443-2.274-14.962-3.049-22.567
		c6.08-12.501,13.089-24.568,20.915-36.005C27.455,13.822,32.096,14.206,36.703,14.674z"/>
	<path style="fill:#C6A342;" d="M98.069,26.477l-0.749,0.818c-15.286,16.58-27.804,35.401-37.197,55.932
		C48.847,107.872,40.45,133.59,35.17,159.683l-1.098,5.408c-2.938-6.208-5.697-12.51-8.269-18.914
		c5.459-23.172,13.302-45.986,23.367-67.957c9.197-20.097,21.222-38.645,35.792-55.208C89.366,24.076,93.734,25.242,98.069,26.477z"
		/>
	<path style="fill:#C6A342;" d="M155.177,48.278l-0.869,0.716c-4.147,3.381-8.192,7.034-12.025,10.866
		c-13.429,13.429-24.245,28.997-32.147,46.267c-19.127,41.779-28.06,85.832-26.57,130.923l0.179,5.305
		c-2.683-3.176-5.297-6.404-7.86-9.666c-1.516-1.941-3.032-3.9-4.513-5.876c0.077-43.252,9.41-85.491,27.813-125.695
		c8.499-18.582,20.132-35.324,34.583-49.775c2.998-2.998,6.114-5.893,9.308-8.644C147.155,44.48,151.183,46.345,155.177,48.278z"/>
	<path style="fill:#C6A342;" d="M207.66,79.54l-1.243,0.647c-9.257,4.846-17.755,11.097-25.232,18.574
		c-8.788,8.788-15.865,18.965-21.026,30.257c-22.38,48.898-27.575,102.327-15.014,154.504c1.286,5.373,2.742,10.645,4.309,15.669
		l1.55,4.956c-5.501-3.883-10.883-7.92-16.129-12.11c-0.502-1.882-0.979-3.789-1.439-5.697
		c-13.191-54.816-7.741-110.954,15.772-162.33c5.757-12.604,13.651-23.955,23.461-33.765c7.179-7.179,15.192-13.336,23.887-18.369
		C200.311,74.354,204.015,76.917,207.66,79.54z"/>
	<path style="fill:#C6A342;" d="M252.07,117.223c1.993,1.993,3.968,4.019,5.91,6.063l-3.619,0.026
		c-5.714,0.042-11.343,1.073-16.725,3.066c-6.642,2.487-12.553,6.285-17.552,11.284c-4.139,4.139-7.477,8.925-9.913,14.255
		c-17.202,37.607-21.196,78.678-11.547,118.763c6.668,27.753,19.195,52.798,37.206,74.454l3.798,4.547
		c-7.443-2.572-14.775-5.39-21.988-8.448c-14.468-20.276-24.781-43.005-30.716-67.744c-10.296-42.725-6.047-86.505,12.297-126.598
		c3.04-6.634,7.196-12.595,12.348-17.747c6.225-6.225,13.583-10.96,21.869-14.051c4.275-1.584,8.652-2.674,13.106-3.279
		C248.408,113.595,250.248,115.4,252.07,117.223z"/>
	<path style="fill:#C6A342;" d="M329.261,358.039c-1.576,1.576-3.485,2.812-5.613,3.603c-3.893,1.448-8.201,1.29-11.975-0.439
		c-41.491-18.997-71.402-55.355-82.064-99.752c-7.782-32.353-4.557-65.493,9.326-95.83c0.783-1.712,1.86-3.25,3.166-4.555
		c1.576-1.576,3.485-2.812,5.615-3.605c3.893-1.447,8.202-1.288,11.978,0.442c30.327,13.898,54.419,36.878,69.669,66.456
		c2.717,5.262,5.14,10.741,7.198,16.274c0.571,1.532,1.104,3.041,1.582,4.474c5.363,15.958,7.954,32.584,7.688,49.378
		c-0.329,20.439-4.838,40.287-13.406,59.001C331.642,355.196,330.566,356.734,329.261,358.039z"/>
	<path style="fill:#6D551B;" d="M253.172,172.137c27.907,12.788,49.218,34.071,62.277,59.397c2.436,4.719,4.588,9.58,6.438,14.554
		c0.488,1.313,0.959,2.639,1.402,3.968c4.749,14.127,7.127,29.07,6.887,44.181c-0.284,17.691-4.15,35.615-11.986,52.731
		c-38.327-17.548-64.225-51.144-73.357-89.173C238.169,230.091,240.395,200.054,253.172,172.137z"/>
	<g>
		<circle style="fill:#FFFFFF;" cx="270.031" cy="254.645" r="16.616"/>
		<circle style="fill:#4D4D4D;" cx="270.031" cy="254.645" r="10.166"/>
	</g>
	<g>
		<circle style="fill:#FFFFFF;" cx="304.213" cy="254.645" r="16.616"/>
		<circle style="fill:#4D4D4D;" cx="304.213" cy="254.645" r="10.166"/>
	</g>
	<path style="fill:#F9D25B;" d="M371.814,346.647h-22.421l7.09,22.637h15.331c5.672,0,10.271-4.598,10.271-10.271v-2.095
		C382.085,351.246,377.487,346.647,371.814,346.647z"/>
</g>
</svg>