<?xml version="1.0" encoding="iso-8859-1"?>
<!-- Uploaded to: SVG Repo, www.svgrepo.com, Generator: SVG Repo Mixer Tools -->
<!DOCTYPE svg PUBLIC "-//W3C//DTD SVG 1.1//EN" "http://www.w3.org/Graphics/SVG/1.1/DTD/svg11.dtd">
<svg version="1.1" id="Capa_1" xmlns="http://www.w3.org/2000/svg" xmlns:xlink="http://www.w3.org/1999/xlink" 
	 viewBox="0 0 393.178 393.178" xml:space="preserve">
<g>
	<path style="fill:#F9D43A;" d="M345.168,287.642c-1.706-25.682-23.065-45.99-49.18-45.99h-80.82L145.5,331.468h199.791
		L345.168,287.642z"/>
	<path style="fill:#F9D43A;" d="M141.345,331.468h206.481c4.429,0,8.019-3.59,8.019-8.019v0c0-4.429-3.59-8.019-8.019-8.019H141.345
		c-4.429,0-8.019,3.59-8.019,8.019v0C133.326,327.877,136.916,331.468,141.345,331.468z"/>
	<path style="fill:#F9993A;" d="M141.874,175.209c-10.721,10.721-10.721,28.104,0,38.825c13.402,13.402,35.13,13.402,48.531,0
		c16.752-16.752,16.752-43.912,0-60.664c-20.94-20.94-54.89-20.94-75.83,0c-26.175,26.175-26.175,68.613,0,94.788
		c32.719,32.719,85.766,32.719,118.485,0c40.898-40.898,40.898-107.207,0-148.106c-51.123-51.123-134.009-51.123-185.132,0
		C14.813,133.167-1.142,176.943,0.063,220.332c1.721,61.949,52.761,111.136,114.735,111.136h100.37V261.8v0"/>
	<path style="fill:#C67328;" d="M236.713,244.316c-1.182,1.301-2.397,2.581-3.654,3.839c-5.455,5.465-11.484,10.009-17.893,13.642
		v0.011c-31.969,18.153-73.328,13.609-100.59-13.653c-26.178-26.167-26.178-68.611,0-94.789c20.94-20.94,54.893-20.94,75.833,0
		c16.754,16.754,16.754,43.919,0,60.673c-13.403,13.393-35.135,13.393-48.538,0c-10.703-10.714-10.714-28.086-0.011-38.811
		c-0.206,0.694-5.714,20.744,7.819,29.756c26.452,17.616,44.849-6.589,38.855-26.568c-10.25-34.161-52.594-32.717-67.049-9.575
		c-14.466,23.131-18.077,70.118,28.911,90.364C181.364,272.543,216.412,256.689,236.713,244.316z"/>
	
		<rect x="334.027" y="186.351" transform="matrix(0.7071 0.7071 -0.7071 0.7071 273.3539 -169.0257)" style="fill:#F9D43A;" width="13.365" height="118.207"/>
	<g>
		
			<rect x="316.385" y="168.71" transform="matrix(0.7071 0.7071 -0.7071 0.7071 255.7129 -161.7186)" style="fill:#F9D43A;" width="13.365" height="118.207"/>
		<circle style="fill:#4D4D4D;" cx="364.02" cy="186.861" r="11.516"/>
	</g>
	<circle style="fill:#4D4D4D;" cx="381.661" cy="204.502" r="11.516"/>
</g>
</svg>