<?xml version="1.0" encoding="iso-8859-1"?>
<!-- Uploaded to: SVG Repo, www.svgrepo.com, Generator: SVG Repo Mixer Tools -->
<!DOCTYPE svg PUBLIC "-//W3C//DTD SVG 1.1//EN" "http://www.w3.org/Graphics/SVG/1.1/DTD/svg11.dtd">
<svg height="800px" width="800px" version="1.1" id="Capa_1" xmlns="http://www.w3.org/2000/svg" xmlns:xlink="http://www.w3.org/1999/xlink" 
	 viewBox="0 0 449.705 449.705" xml:space="preserve">
<g>
	<polygon style="fill:#47B8D6;" points="137.018,248.187 178.807,253.578 173.416,295.367 110.271,306.452 	"/>
	<path style="fill:#80E0F9;" d="M449.705,236.763l-0.01,0.01c-13.63,1.35-27.15,3.47-40.49,6.36c-23.14,5.01-46.71,7.79-70.39,7.79
		h-0.44c-6.08,0-11,4.92-11,11h21.75c-9.34,3.89-18.53,8.18-27.51,12.92c-2.59,1.37-5.21,2.69-7.86,3.95
		c-26.53,12.71-55.94,20.38-86.98,21.79c-3.45,0.16-6.91,0.24-10.4,0.24c-21.13,0-41.58-2.9-60.97-8.33
		c-36.88-10.31-69.96-29.76-96.64-55.73c0.29-0.28,0.59-0.57,0.88-0.84c31.98-30.82,73.02-52.27,118.74-60.01
		c8.03-1.36,10.66-11.5,4.41-16.72c-4.76-3.97-10.13-7.22-15.97-9.58c8.09-4.06,17.22-6.36,26.88-6.36
		c22.81,0,42.65,12.73,52.8,31.48c23.15,3.08,45.19,9.66,65.58,19.21c3.01,1.4,5.99,2.88,8.93,4.42
		c7.97,4.18,16.09,8.04,24.34,11.57C378.505,224.163,413.705,233.203,449.705,236.763z"/>
	<path style="fill:#51CAF4;" d="M345.355,209.933l-57.98,25.99H59.645c31.98-30.82,73.02-52.27,118.74-60.01
		c8.03-1.36,10.66-11.5,4.41-16.72c-4.76-3.97-10.13-7.22-15.97-9.58c8.09-4.06,17.22-6.36,26.88-6.36
		c22.81,0,42.65,12.73,52.8,31.48c23.15,3.08,45.19,9.66,65.58,19.21c3.01,1.4,5.99,2.88,8.93,4.42
		C328.985,202.543,337.105,206.403,345.355,209.933z"/>
	<path style="fill:#47B8D6;" d="M449.705,236.763l-0.01,0.01c-13.63,1.35-27.15,3.47-40.49,6.36c-23.14,5.01-46.71,7.79-70.39,7.79
		h-0.44c-6.08,0-11,4.92-11,11h21.75c-9.34,3.89-18.53,8.18-27.51,12.92c-2.59,1.37-5.21,2.69-7.86,3.95
		c-15.65-7.91-26.38-24.14-26.38-42.87c0-18.06,9.97-33.79,24.71-41.98c3.01,1.4,5.99,2.88,8.93,4.42
		C361.035,219.323,404.745,232.313,449.705,236.763z"/>
	<path style="fill:#51CAF4;" d="M1.257,187.784c-2.48-1.737-1.014-5.657,1.99-5.273c0.04,0.005,0.08,0.01,0.12,0.015
		c12.922,1.667,24.967,5.67,35.773,11.537c18.006,9.778,32.547,24.725,41.92,42.603c-8.942,30.582-31.48,54.607-59.909,66.13
		c-0.045,0.018-0.09,0.036-0.135,0.055c-3.153,1.263-5.794-2.642-3.48-5.128c12.211-13.124,21.088-29.552,25.064-48.075
		C37.038,224.485,22.128,202.404,1.257,187.784z"/>
	<path style="fill:#47B8D6;" d="M224.479,280.923h-19.236v0c0-12.718,10.31-23.027,23.027-23.027h19.236l0,0
		C247.507,270.613,237.197,280.923,224.479,280.923z"/>
	<g>
		<circle style="fill:#FFFFFF;" cx="316.375" cy="225.923" r="14.912"/>
		<circle style="fill:#4D4D4D;" cx="316.375" cy="225.923" r="9.124"/>
	</g>
</g>
</svg>